# xmcd CD database file
#
# Track frame offsets:
#	150
#	22822
#	44363
#	65969
#	87531
#	96447
#	119224
#	137995
#	166544
#	185287
#	204451
#	225972
#	241191
#	262172
#
# Disc length: 3705 seconds
#
# Revision: 0
# Processed by: cddbd v1.5.2PL0 Copyright (c) Steve Scherf et al.
# Submitted via: CDex 1.51
#
DISCID=c50e770e
DTITLE=Senas Kuinas - Baltas Bliuzo Ðeðëlis
DYEAR=2004
DGENRE=Blues
TTITLE0=Valtis
TTITLE1=Að tau palieku
TTITLE2=Traukinys
TTITLE3=Gerbiami ponai!
TTITLE4=Nei mamos, nei tavo
TTITLE5=Dar ne, jau ne
TTITLE6=Kelias
TTITLE7=Sësk prie mûsø stalo, seni
TTITLE8="Balti drambliai"
TTITLE9=Dienos
TTITLE10=Requiem 40-meèiams
TTITLE11=Paukðtis
TTITLE12=Kaþkas ne taip
TTITLE13=Að negráðiu namo
EXTD=YEAR: 2004
EXTT0=
EXTT1=
EXTT2=
EXTT3=
EXTT4=
EXTT5=
EXTT6=
EXTT7=
EXTT8=
EXTT9=
EXTT10=
EXTT11=
EXTT12=
EXTT13=
PLAYORDER=
